<?xml version="1.0" standalone="no"?>
<!DOCTYPE svg PUBLIC "-//W3C//DTD SVG 20010904//EN"
 "http://www.w3.org/TR/2001/REC-SVG-20010904/DTD/svg10.dtd">
<svg version="1.0" xmlns="http://www.w3.org/2000/svg"
 width="900.000000pt" height="714.000000pt" viewBox="0 0 900.000000 714.000000"
 preserveAspectRatio="xMidYMid meet">
<metadata>
Created by potrace 1.10, written by Peter Selinger 2001-2011
</metadata>
<g transform="translate(0.000000,714.000000) scale(0.100000,-0.100000)"
fill="#000000" stroke="none">
<path d="M0 3570 l0 -3570 4500 0 4500 0 0 3570 0 3570 -4500 0 -4500 0 0
-3570z m3823 1281 c80 -35 136 -102 242 -296 15 -27 51 -90 80 -140 99 -171
291 -502 463 -800 41 -71 112 -193 157 -270 45 -77 92 -159 104 -182 37 -73
55 -62 137 80 39 67 100 171 135 231 65 113 140 200 219 253 62 42 191 90 273
102 74 11 230 -1 282 -21 111 -42 201 -101 273 -178 43 -46 105 -149 134 -225
20 -52 23 -78 23 -200 0 -143 -6 -176 -52 -275 -24 -51 -95 -150 -109 -150 -6
0 -55 75 -109 168 -54 92 -146 249 -206 349 -59 101 -110 192 -114 202 -3 11
-15 23 -26 26 -19 6 -49 -9 -49 -25 0 -8 -50 -95 -216 -375 -46 -77 -98 -156
-116 -175 -48 -51 -136 -119 -183 -140 -105 -49 -280 -64 -397 -34 -180 46
-280 133 -410 354 -193 328 -227 388 -258 445 -145 269 -341 432 -605 501 -91
23 -113 25 -235 21 -74 -3 -150 -9 -167 -12 -20 -4 -33 -3 -33 2 0 9 44 86
275 483 105 181 122 206 165 240 33 26 87 52 135 64 38 10 141 -3 188 -23z
m1617 -7 c91 -50 96 -56 404 -587 54 -93 95 -171 92 -174 -3 -4 -29 -1 -57 5
-28 7 -102 12 -164 12 -299 0 -570 -143 -737 -389 -24 -36 -48 -66 -54 -68
-15 -5 -85 88 -120 156 -14 30 -35 88 -45 129 -45 177 -10 317 139 564 29 47
52 88 52 92 0 13 96 164 124 194 39 42 108 83 155 93 65 14 158 2 211 -27z
m-2005 -1030 c183 -44 332 -173 450 -389 15 -27 51 -90 80 -140 29 -49 87
-151 130 -225 43 -74 95 -164 116 -200 50 -87 44 -93 -97 -98 -122 -5 -194 10
-304 64 -110 53 -172 120 -277 297 -51 85 -120 204 -154 264 -65 115 -85 143
-103 143 -6 0 -57 -78 -112 -173 -112 -191 -266 -456 -308 -529 -16 -28 -34
-48 -44 -48 -19 0 -91 101 -118 165 -103 246 -52 518 131 700 69 69 156 129
225 154 54 20 209 40 270 34 30 -2 82 -11 115 -19z m25 -1374 c0 -11 -4 -20
-9 -20 -14 0 -23 18 -16 30 10 17 25 11 25 -10z m2225 0 c0 -7 -6 -15 -12 -17
-8 -3 -13 4 -13 17 0 13 5 20 13 18 6 -3 12 -11 12 -18z m1505 -6 c0 -16 -16
-19 -25 -4 -8 13 4 32 16 25 5 -4 9 -13 9 -21z m672 -6 c-9 -9 -15 -9 -24 0
-10 10 -10 15 2 22 20 12 38 -6 22 -22z m648 12 c0 -19 -11 -26 -23 -14 -8 8
3 34 14 34 5 0 9 -9 9 -20z m-8035 -10 c3 -5 17 -10 30 -10 13 0 27 5 30 10
11 18 41 11 65 -15 17 -18 34 -25 62 -25 48 0 54 -13 39 -88 -6 -31 -8 -58 -4
-60 5 -1 15 -7 23 -12 13 -8 12 -11 -5 -24 -32 -23 -59 -3 -50 37 3 18 9 51
12 75 4 37 3 42 -15 42 -29 0 -70 -57 -78 -108 -4 -23 -10 -45 -15 -47 -18
-12 -18 19 0 91 21 83 20 100 -10 109 -40 13 -79 -50 -88 -144 -6 -51 -23 -77
-33 -49 -3 7 0 50 5 96 9 71 8 85 -7 100 -9 10 -16 22 -16 25 0 11 48 8 55 -3z
m2760 -6 c27 -17 32 -43 13 -62 -9 -9 -7 -21 7 -53 17 -37 17 -44 4 -68 -9
-15 -31 -32 -55 -40 -36 -13 -45 -12 -88 4 -43 17 -47 21 -41 44 11 45 43 111
54 111 15 0 14 -11 -5 -55 -13 -31 -13 -43 -3 -61 17 -32 36 -37 70 -17 46 27
49 61 8 95 -18 15 -29 28 -23 28 6 0 19 6 29 14 19 14 19 15 1 35 -12 14 -31
21 -53 21 -20 0 -32 4 -28 10 10 16 83 12 110 -6z m443 -9 c1 -11 -2 -27 -8
-35 -9 -13 -12 -13 -21 3 -14 24 -24 21 -37 -8 -16 -35 -15 -37 9 -30 22 7 22
7 -1 -16 -46 -49 -47 -88 -4 -108 14 -6 22 -16 19 -21 -10 -16 -30 -12 -59 11
-29 23 -33 57 -15 123 21 77 109 139 117 81z m477 6 c6 -20 -3 -51 -15 -51 -4
0 -10 10 -14 23 l-6 22 -20 -25 c-12 -15 -18 -34 -15 -48 3 -12 -2 -33 -11
-47 -20 -31 -10 -63 23 -76 19 -7 23 -13 15 -21 -16 -16 -67 8 -81 39 -17 36
13 135 51 174 34 33 64 38 73 10z m477 2 c23 -20 22 -53 -1 -120 -19 -56 -17
-69 14 -75 18 -3 18 -5 -8 -22 -36 -24 -55 -9 -59 47 -3 38 -6 42 -32 45 -36
4 -47 -7 -55 -55 -10 -60 -35 -50 -38 15 -1 44 3 57 23 77 13 13 24 29 24 35
0 5 5 10 11 10 6 0 9 -9 6 -20 -7 -26 24 -43 63 -35 31 7 45 37 30 65 -13 24
-47 31 -61 14 -6 -8 -16 -14 -23 -14 -6 0 1 11 14 24 29 29 66 33 92 9z m1548
0 c68 -40 64 -147 -7 -203 -17 -13 -24 -26 -20 -40 4 -15 0 -20 -13 -20 -11 0
-22 5 -25 10 -3 6 -26 10 -51 10 -51 0 -84 14 -84 35 0 23 20 28 40 10 12 -11
20 -13 25 -6 3 6 26 11 50 11 35 0 48 5 64 26 32 40 37 91 14 122 -33 45 -66
50 -108 18 -20 -16 -41 -39 -46 -53 -15 -39 -23 -19 -9 22 22 66 108 95 170
58z m1481 -12 c16 -16 29 -34 29 -39 0 -5 -13 -26 -29 -46 -23 -29 -28 -42
-22 -64 6 -22 14 -28 41 -30 l33 -4 -28 -18 c-40 -26 -61 -12 -74 50 -14 63
-14 60 4 60 9 0 20 12 26 27 8 22 6 30 -12 50 -13 13 -34 23 -51 23 -15 0 -28
5 -28 10 0 6 18 10 41 10 31 0 47 -6 70 -29z m-6504 -8 c-3 -16 -8 -35 -12
-45 -6 -14 -1 -16 34 -11 36 5 41 3 52 -21 9 -18 9 -33 2 -48 -13 -31 -6 -48
20 -48 22 -1 22 -1 3 -15 -43 -33 -72 -10 -61 49 4 19 1 38 -8 50 -14 19 -15
19 -37 -2 -15 -14 -26 -38 -29 -64 -4 -29 -11 -43 -21 -43 -32 0 -20 103 22
188 22 44 43 50 35 10z m1598 16 c4 -5 -3 -34 -15 -63 -28 -69 -24 -118 9
-126 22 -5 22 -7 7 -19 -14 -11 -24 -12 -57 -2 -35 11 -39 14 -25 24 9 7 17
29 19 52 1 31 -2 40 -16 43 -23 5 -53 -22 -62 -55 -4 -19 0 -32 15 -48 26 -28
10 -44 -26 -24 -37 20 -34 82 7 120 17 16 39 29 49 29 34 0 49 12 60 46 12 35
24 43 35 23z m4035 -7 c0 -10 -5 -23 -11 -29 -5 -5 -16 -35 -23 -66 -14 -59
-7 -87 22 -87 15 0 15 -1 0 -16 -14 -14 -21 -14 -53 -4 -34 11 -35 13 -21 29
9 10 16 34 16 54 0 30 -4 37 -19 37 -22 0 -61 -44 -61 -68 0 -9 8 -24 17 -34
12 -14 14 -21 5 -30 -16 -16 -62 16 -62 43 0 44 51 109 86 109 31 0 54 10 54
24 0 16 29 56 41 56 5 0 9 -8 9 -18z m-1980 -31 c0 -11 5 -23 12 -27 8 -5 5
-10 -9 -15 -14 -5 -22 -19 -25 -43 -6 -51 6 -76 34 -69 l23 5 -25 -21 c-14
-11 -28 -21 -31 -21 -17 0 -27 31 -30 91 -3 50 1 72 14 92 21 32 37 35 37 8z
m183 -8 c3 -18 0 -31 -8 -36 -20 -11 -29 -71 -15 -96 8 -16 17 -20 33 -16 17
5 15 2 -8 -14 -26 -18 -31 -19 -45 -6 -9 10 -15 36 -15 70 -1 30 -4 57 -7 60
-6 6 42 65 53 65 4 0 9 -12 12 -27z m-4122 -59 c-8 -71 -7 -79 16 -82 25 -4
39 17 51 74 4 21 14 40 21 42 11 4 13 -6 7 -52 -5 -45 -3 -56 8 -56 25 0 28
-18 6 -30 -15 -8 -30 -8 -50 -1 -22 7 -32 6 -41 -5 -15 -19 -33 -18 -52 4 -13
14 -14 26 -6 67 14 70 17 77 32 72 7 -2 11 -16 8 -33z m621 -21 c3 -51 5 -58
28 -64 l25 -6 -27 -13 c-22 -10 -33 -10 -58 0 -28 12 -29 14 -15 30 8 9 15 33
15 53 0 30 -4 37 -19 37 -45 0 -75 -67 -45 -101 26 -29 4 -48 -30 -25 -37 23
-34 66 5 111 27 30 37 35 75 35 l43 0 3 -57z m257 44 c7 -6 32 -11 55 -12 41
0 41 0 41 -38 0 -25 6 -43 17 -51 20 -15 6 -36 -24 -36 -19 0 -20 3 -22 60 -2
65 -66 45 -66 -22 0 -18 -5 -28 -15 -28 -11 0 -15 12 -15 50 0 46 -2 50 -24
50 -24 0 -42 -28 -48 -78 -2 -12 -7 -23 -13 -23 -16 1 -17 64 -1 101 13 32 18
35 58 37 23 0 49 -4 57 -10z m336 3 c3 -5 26 -10 49 -10 53 0 73 -18 56 -50
-13 -25 1 -50 29 -50 13 -1 13 -3 -3 -15 -11 -8 -28 -15 -38 -15 -15 0 -18 8
-18 45 0 32 -5 47 -15 52 -23 8 -55 -26 -55 -58 0 -15 -4 -30 -9 -34 -13 -7
-23 28 -16 57 3 12 0 31 -7 41 -12 16 -15 16 -36 2 -14 -10 -22 -26 -22 -45 0
-36 -10 -61 -21 -54 -12 7 -12 76 0 108 7 18 19 26 43 29 18 2 38 5 45 5 6 1
15 -2 18 -8z m365 -49 c0 -58 1 -60 28 -63 l27 -4 -27 -13 c-22 -11 -33 -11
-58 -1 -28 12 -29 14 -15 30 8 9 15 33 15 53 0 32 -3 37 -24 37 -17 0 -31 -10
-45 -34 -26 -41 -26 -41 1 -66 16 -15 19 -23 10 -32 -18 -18 -62 16 -62 50 0
57 47 101 108 102 l42 0 0 -59z m1448 2 c-3 -53 -1 -58 20 -61 12 -2 22 -7 22
-13 0 -15 -44 -21 -73 -10 -25 10 -26 11 -12 38 19 36 19 67 0 83 -11 9 -19 7
-40 -14 -29 -29 -33 -71 -9 -98 16 -16 15 -18 0 -24 -26 -10 -56 24 -56 62 0
51 49 94 106 94 l44 0 -2 -57z m1354 27 c-8 -65 -6 -73 13 -84 11 -6 22 -12
25 -14 13 -9 -29 -21 -55 -16 -44 9 -47 13 -30 37 20 28 19 76 -1 84 -20 7
-64 -34 -64 -62 0 -12 7 -30 15 -41 19 -25 19 -34 -2 -34 -28 0 -53 31 -53 66
0 23 9 41 31 64 28 27 37 31 78 28 43 -3 46 -5 43 -28z m163 20 c3 -5 22 -10
41 -10 40 0 54 -21 35 -52 -14 -22 0 -48 26 -48 13 0 13 -3 3 -15 -26 -32 -76
-9 -69 31 1 5 1 17 0 27 -1 19 -30 24 -32 5 -4 -47 -9 -71 -14 -76 -10 -11
-26 22 -20 43 2 11 5 39 5 63 0 40 11 54 25 32z m1067 -2 c3 -7 0 -24 -5 -39
-13 -32 -3 -59 23 -66 11 -3 20 -9 20 -14 0 -15 -44 -21 -72 -10 -26 10 -27
11 -12 40 31 62 -5 108 -47 60 -23 -27 -25 -62 -3 -83 8 -9 12 -20 9 -26 -18
-30 -65 10 -65 56 0 50 49 94 105 94 25 0 45 -5 47 -12z m443 2 c3 -5 22 -10
41 -10 35 0 36 0 33 -41 -3 -31 1 -44 16 -55 19 -14 19 -14 -1 -28 -16 -13
-21 -12 -36 1 -9 8 -18 29 -20 47 -4 41 -32 42 -36 1 -4 -47 -11 -60 -23 -48
-7 7 -8 34 -4 77 7 62 16 79 30 56z m620 -52 c-7 -61 -18 -88 -36 -88 -14 0
-11 46 7 101 23 69 38 63 29 -13z m490 52 c3 -5 15 -10 26 -10 23 0 26 -28 3
-37 -8 -3 -20 -1 -27 6 -6 6 -21 11 -33 11 -13 0 -26 5 -29 10 -10 16 4 30 30
30 13 0 27 -4 30 -10z m180 -50 c-6 -45 -5 -48 20 -54 22 -6 25 -9 15 -21 -18
-22 -28 -19 -45 15 -15 29 -21 101 -9 113 16 16 25 -9 19 -53z m-4786 28 c0
-13 -4 -32 -8 -43 -11 -27 -3 -45 20 -45 24 0 24 -9 2 -25 -12 -9 -23 -10 -35
-4 -33 18 -21 139 14 139 4 0 8 -10 7 -22z m2218 -26 c-5 -42 -3 -50 16 -61
20 -13 20 -14 2 -27 -42 -31 -72 47 -43 111 19 41 31 30 25 -23z m1509 -1 c-5
-37 -3 -51 9 -61 12 -10 13 -16 4 -27 -18 -21 -49 12 -49 53 0 41 16 84 31 84
8 0 10 -15 5 -49z m677 37 c2 -7 0 -25 -6 -41 -12 -35 -3 -57 23 -57 24 0 19
-15 -10 -30 -40 -21 -65 49 -40 114 10 28 26 34 33 14z m487 -7 c0 -11 -4 -23
-10 -26 -5 -3 -10 -17 -10 -31 0 -13 -4 -24 -10 -24 -11 0 -14 83 -3 93 13 14
33 6 33 -12z m158 -25 c-7 -55 6 -79 35 -71 17 5 15 2 -8 -14 -27 -18 -31 -19
-45 -5 -25 25 -16 134 11 134 8 0 10 -14 7 -44z m-441 -66 c3 -11 10 -20 15
-20 5 0 6 -4 3 -10 -10 -16 -41 -11 -59 9 -17 18 -17 20 1 30 26 15 34 13 40
-9z"/>
</g>
</svg>
