<?xml version="1.0" standalone="no"?>
<!DOCTYPE svg PUBLIC "-//W3C//DTD SVG 20010904//EN"
 "http://www.w3.org/TR/2001/REC-SVG-20010904/DTD/svg10.dtd">
<svg version="1.0" xmlns="http://www.w3.org/2000/svg"
 width="300.000000pt" height="238.000000pt" viewBox="0 0 300.000000 238.000000"
 preserveAspectRatio="xMidYMid meet">
<metadata>
Created by potrace 1.10, written by Peter Selinger 2001-2011
</metadata>
<g transform="translate(0.000000,238.000000) scale(0.100000,-0.100000)"
fill="#000000" stroke="none">
<path d="M1170 1649 c-41 -25 -48 -34 -118 -154 -61 -102 -71 -135 -48 -154
22 -18 20 -28 -5 -36 -35 -11 -111 -87 -130 -130 -40 -86 -14 -231 46 -271 36
-24 58 -5 121 101 30 53 59 93 64 90 5 -3 23 -30 40 -60 55 -96 143 -155 233
-155 34 0 77 36 77 66 0 24 0 24 45 -11 127 -96 262 -64 360 87 28 43 52 77
55 78 3 0 30 -41 60 -92 30 -50 65 -97 76 -105 19 -12 25 -11 52 12 34 28 62
99 62 156 0 85 -51 172 -128 216 -26 14 -49 28 -51 29 -1 2 7 13 18 25 12 13
19 30 16 39 -14 37 -110 201 -136 234 -40 47 -94 64 -150 46 -50 -17 -81 -54
-137 -160 -37 -71 -42 -90 -42 -146 0 -39 -4 -63 -10 -59 -5 3 -48 72 -95 153
-101 174 -101 174 -145 201 -44 27 -86 27 -130 0z m135 -39 c8 -6 51 -75 96
-153 45 -78 117 -204 161 -280 l80 -138 45 78 c52 91 75 119 123 143 54 27 96
33 149 20 135 -32 207 -191 141 -309 -26 -46 -46 -61 -52 -39 -5 19 -132 247
-138 248 -3 0 -24 -36 -48 -81 -52 -95 -95 -147 -139 -165 -64 -27 -166 -11
-216 34 -10 9 -57 80 -103 158 -45 78 -98 154 -116 169 -66 56 -167 84 -234
66 -21 -6 -39 -9 -41 -7 -4 4 125 225 145 249 30 35 109 39 147 7z m521 8 c12
-5 50 -58 84 -116 35 -59 70 -115 78 -125 21 -24 12 -28 -32 -16 -82 23 -193
-18 -265 -97 -46 -50 -50 -52 -64 -36 -55 60 -61 153 -16 238 85 159 132 193
215 152z m-620 -363 c23 -13 50 -37 60 -52 26 -39 164 -275 164 -281 0 -2 -31
-3 -69 0 -96 5 -132 31 -196 142 -27 48 -54 93 -60 101 -8 12 -27 -14 -84
-115 -41 -71 -78 -130 -83 -130 -5 0 -20 24 -33 53 -33 69 -32 128 1 196 56
112 189 150 300 86z m455 -64 c26 16 29 9 12 -26 -21 -44 -36 -44 -62 -1 -28
44 -26 49 7 32 18 -9 33 -11 43 -5z"/>
<path d="M127 832 c-23 -25 -21 -74 2 -104 l20 -24 389 -2 c364 -1 391 1 406
17 13 14 15 29 10 59 -9 57 -26 69 -67 51 -42 -19 -450 -20 -469 -1 -15 15
-54 16 -63 2 -9 -15 -89 -12 -121 5 -39 20 -87 19 -107 -3z m83 -21 c0 -5 8
-8 18 -7 13 1 16 -5 14 -27 -2 -20 1 -27 9 -22 7 5 10 3 7 -6 -3 -8 -13 -16
-23 -18 -15 -3 -17 2 -12 30 6 32 6 33 -8 15 -8 -11 -15 -26 -15 -33 0 -7 -5
-13 -10 -13 -7 0 -8 14 -4 38 5 26 3 34 -5 27 -6 -6 -12 -21 -14 -35 -2 -13
-10 -26 -17 -28 -10 -4 -11 4 -6 32 4 23 3 36 -4 36 -5 0 -10 5 -10 10 0 6 18
10 40 10 22 0 40 -4 40 -9z m186 -6 c-3 -9 0 -15 9 -15 8 0 15 -9 15 -20 0
-11 5 -20 11 -20 5 0 7 -4 4 -10 -11 -18 -35 -11 -35 10 0 11 -4 20 -10 20 -5
0 -10 -9 -10 -20 0 -11 -4 -20 -10 -20 -13 0 -13 46 0 71 12 22 35 26 26 4z
m528 -21 c-5 -29 -4 -35 6 -29 8 5 11 3 8 -6 -2 -8 -21 -15 -41 -17 -34 -3
-37 -1 -37 23 0 15 7 28 18 32 9 4 21 12 25 20 16 26 28 13 21 -23z m-627 -14
c-3 -11 -1 -20 4 -20 5 0 9 9 9 20 0 11 5 20 10 20 6 0 10 -6 10 -14 0 -8 5
-16 12 -18 6 -2 8 -10 4 -16 -8 -13 -76 -17 -76 -4 1 21 14 52 22 52 6 0 8 -9
5 -20z m208 -2 c-6 -17 -4 -20 10 -15 11 5 15 3 13 -5 -6 -18 -69 -23 -79 -7
-12 20 9 49 37 49 21 0 24 -3 19 -22z m119 -1 c-1 -9 3 -14 8 -11 6 4 9 1 6
-7 -7 -22 -38 -23 -39 -2 -1 16 -2 17 -6 1 -6 -25 -23 -22 -24 5 l-2 22 -4
-22 c-6 -34 -23 -28 -23 7 0 30 1 31 43 27 32 -2 42 -7 41 -20z m116 9 c0 -8
3 -21 6 -30 4 -11 1 -16 -10 -16 -10 0 -17 9 -17 23 l-2 22 -4 -22 c-6 -29
-23 -30 -23 -1 0 12 -3 18 -7 14 -5 -4 -8 -13 -8 -18 0 -6 -6 -13 -12 -15 -14
-5 -17 15 -7 41 8 21 84 23 84 2z m85 -6 c-5 -14 -2 -20 10 -20 9 0 13 -4 10
-10 -8 -13 -72 -13 -80 0 -11 18 15 50 41 50 21 0 24 -4 19 -20z"/>
<path d="M1018 833 c-24 -27 -30 -84 -12 -108 14 -19 27 -20 194 -21 127 -1
184 2 196 10 24 18 30 93 8 117 -21 23 -37 24 -54 4 -16 -19 -79 -20 -105 -1
-20 14 -96 15 -126 2 -10 -4 -20 -3 -24 3 -10 17 -60 13 -77 -6z m77 -58 c0
-43 -14 -52 -60 -41 -22 6 -23 8 -10 34 9 16 11 28 5 30 -22 8 4 23 33 20 30
-3 32 -5 32 -43z m145 35 c0 -6 -9 -18 -20 -27 -26 -22 -26 -37 1 -30 13 3 19
1 16 -6 -2 -7 -15 -12 -28 -12 -28 0 -37 31 -19 64 11 21 50 29 50 11z m160 0
c0 -6 -9 -18 -20 -27 -26 -23 -26 -36 1 -28 16 5 20 3 17 -6 -3 -8 -16 -14
-29 -14 -28 0 -37 31 -19 64 11 21 50 29 50 11z m-250 -41 c0 -12 4 -18 11
-13 7 4 10 1 7 -7 -3 -8 -12 -15 -21 -17 -13 -3 -17 4 -17 27 0 17 5 31 10 31
6 0 10 -9 10 -21z m160 0 c0 -12 4 -18 11 -13 7 4 10 1 7 -7 -2 -8 -21 -15
-41 -17 -33 -3 -37 -1 -37 21 0 30 7 37 37 37 17 0 23 -6 23 -21z"/>
<path d="M1482 820 c-34 -34 -40 -65 -18 -95 13 -17 31 -19 224 -21 244 -3
246 -2 238 79 -7 70 -22 83 -58 51 -21 -20 -68 -23 -155 -12 -33 4 -81 10
-105 12 -23 3 -55 8 -69 12 -20 4 -32 -1 -57 -26z m70 -38 c-1 -23 1 -31 9
-26 7 4 10 1 7 -7 -6 -17 -43 -19 -44 -1 -3 25 -6 26 -14 5 -12 -28 -26 -29
-33 -3 -7 26 31 71 58 68 16 -3 19 -9 17 -36z m61 13 c4 -8 2 -17 -3 -20 -16
-10 -11 -28 6 -21 10 4 14 1 12 -6 -7 -19 -37 -22 -44 -4 -8 20 3 66 15 66 5
0 11 -7 14 -15z m61 0 c3 -8 1 -15 -4 -15 -6 0 -10 -7 -10 -16 0 -11 5 -14 16
-10 10 4 14 1 12 -6 -7 -19 -37 -22 -44 -4 -8 20 3 66 15 66 5 0 11 -7 15 -15z
m86 -26 c0 -12 4 -18 11 -13 7 4 10 1 7 -7 -2 -8 -21 -15 -41 -17 -33 -3 -37
-1 -37 21 0 30 7 37 37 37 17 0 23 -6 23 -21z m80 1 c0 -11 5 -20 11 -20 5 0
8 -4 4 -9 -3 -5 -19 -9 -35 -9 -26 1 -30 5 -30 30 0 23 4 28 25 28 18 0 25 -5
25 -20z m55 -1 c-5 -15 -4 -19 4 -15 6 4 11 0 11 -8 0 -9 -9 -16 -20 -16 -16
0 -20 7 -20 30 0 21 5 30 16 30 11 0 14 -6 9 -21z"/>
<path d="M2001 833 c-12 -10 -26 -35 -31 -57 -7 -34 -5 -41 15 -62 23 -23 82
-33 98 -17 4 3 76 6 160 6 139 -1 154 1 174 20 12 11 20 24 16 30 -3 5 -6 26
-7 45 -1 49 -27 64 -59 34 -24 -23 -36 -23 -85 1 -18 9 -30 7 -55 -6 -26 -14
-42 -15 -85 -8 -29 4 -58 13 -65 20 -16 16 -52 14 -76 -6z m80 -29 c11 -13 11
-21 -3 -44 -12 -21 -13 -30 -5 -33 27 -10 -3 -17 -39 -9 -37 8 -39 10 -36 43
1 19 4 40 7 47 6 17 60 15 76 -4z m194 7 c3 -5 1 -12 -5 -16 -5 -3 -10 -15
-10 -26 0 -12 4 -17 11 -13 7 4 10 1 7 -7 -2 -8 -21 -15 -41 -17 -34 -3 -37
-1 -37 23 0 18 7 28 25 35 14 5 25 14 25 20 0 13 17 13 25 1z m-105 -42 c0
-12 4 -18 11 -13 7 4 10 1 7 -7 -2 -8 -21 -15 -41 -17 -33 -3 -37 -1 -37 21 0
30 7 37 37 37 17 0 23 -6 23 -21z m172 -3 c-2 -9 2 -16 8 -16 6 0 9 -4 5 -9
-3 -5 -19 -9 -35 -9 -25 1 -29 4 -27 29 2 25 6 28 27 25 17 -2 24 -9 22 -20z
m55 5 c-3 -14 -1 -18 10 -14 11 4 14 1 11 -8 -2 -8 -14 -15 -26 -17 -19 -3
-22 1 -22 27 0 22 5 31 16 31 11 0 15 -6 11 -19z"/>
<path d="M2022 778 c2 -13 10 -23 18 -23 8 0 16 10 18 23 3 17 -2 22 -18 22
-16 0 -21 -5 -18 -22z"/>
<path d="M2496 831 c-10 -11 -20 -37 -23 -59 -9 -64 6 -68 207 -67 154 2 172
4 184 20 8 11 12 25 9 32 -3 6 -5 26 -6 44 -3 43 -32 62 -55 34 -14 -17 -28
-20 -79 -19 -39 1 -72 8 -88 18 -18 12 -30 14 -43 7 -11 -6 -24 -6 -33 0 -23
14 -55 10 -73 -10z m70 -26 c4 -8 1 -22 -6 -30 -12 -14 -7 -19 13 -16 5 1 7
-4 5 -11 -8 -23 -35 -20 -43 4 l-8 23 -4 -22 c-2 -13 -11 -23 -20 -23 -8 0
-13 6 -10 13 15 42 17 57 7 57 -6 0 -8 5 -5 10 10 16 65 12 71 -5z m54 -36 c0
-11 5 -17 10 -14 6 3 10 1 10 -5 0 -16 -30 -24 -42 -12 -11 11 -2 52 13 52 5
0 9 -9 9 -21z m77 2 c-3 -14 -1 -18 9 -14 10 4 12 0 8 -11 -3 -9 -17 -16 -30
-16 -26 0 -30 10 -12 28 9 9 8 12 -5 12 -9 0 -17 5 -17 10 0 6 12 10 26 10 21
0 25 -4 21 -19z m54 -3 l2 -23 4 23 c6 29 15 28 30 -3 8 -19 8 -25 0 -25 -7 0
-22 -3 -34 -6 -20 -6 -23 -3 -23 25 0 35 19 43 21 9z m86 3 c-3 -14 -1 -18 10
-14 11 4 14 1 11 -8 -2 -8 -14 -15 -26 -17 -17 -3 -22 2 -22 21 0 25 7 37 23
37 5 0 7 -9 4 -19z"/>
</g>
</svg>
